# xmcd CD database file generated by OrangeCD 6.3
#
# Track frame offsets:
#	150
#	16768
#	29832
#	50189
#	81685
#	99516
#	130813
#	150852
#	169616
#	192086
#	209380
#	223269
#	236784
#	259198
#	279057
#	314674
#
# Disc length: 4546 seconds
#
# Revision: 2
# Processed by: cddbd v1.5.2PL0 Copyright (c) Steve Scherf et al.
# Submitted via: OrangeCD 6.3
#
DISCID=e711c010
DTITLE=Various Artist - Compilation 2010
DYEAR=2010
DGENRE=Compilation
TTITLE0=Fleetwood Mac - Little Lies
TTITLE1=Fleetwood Mac - Second Hand News
TTITLE2=Fleetwood Mac - The Chain
TTITLE3=Genesis - Abacab
TTITLE4=Genesis - Follow You Follow Me
TTITLE5=Genesis - I Can't Dance
TTITLE6=Genesis - Man On The Corner
TTITLE7=Glass Tiger - Don't Forget Me (When I'm Gone)
TTITLE8=Glass Tiger - Thin Red Line
TTITLE9=Glen Burtnick - Not So Far Away
TTITLE10=Green Day - Basket Case
TTITLE11=Green Day - When I Come Around
TTITLE12=Huey Lewis And The News - Couple Days Off
TTITLE13=Tomita - Firebird Suite: Infernal Dance
TTITLE14=Tomita - The Planets: Mars, The Bringer of War
TTITLE15=Tomita - Pachelbel: Canon and Gigue In D
EXTD=
EXTT0=
EXTT1=
EXTT2=
EXTT3=
EXTT4=
EXTT5=
EXTT6=
EXTT7=
EXTT8=
EXTT9=
EXTT10=
EXTT11=
EXTT12=
EXTT13=
EXTT14=
EXTT15=
PLAYORDER=
